<svg xmlns:xlink="http://www.w3.org/1999/xlink" xmlns="http://www.w3.org/2000/svg" version="1.1" viewBox="-10 -10 360 410" stroke-linecap="square"><g xmlns="http://www.w3.org/2000/svg"><rect width="360" height="410" rx="15" fill="#778899" x="-10" y="-10"/><path stroke="#000000" stroke-width="12.0" stroke-linejoin="round" stroke-linecap="round" d="m168.3937 0l0 385.98425" fill-rule="evenodd"/><path stroke="#595959" stroke-width="4.0" stroke-linejoin="round" stroke-linecap="butt" d="m157.59341 239.14589l0 0c-56.136444 0.1751709 -108.128494 -20.765472 -136.34059 -54.91336c-28.212103 -34.14789 -28.344936 -76.29913 -0.34833527 -110.53471c27.996603 -34.235584 79.85616 -55.338234 135.99316 -55.338234l0 110.3937z" fill-rule="evenodd" fill="#ffffff"/><path fill="#000000" d="m157.29962 192.53154l0 0c-22.78302 0.14422607 -43.904724 -11.929428 -55.379448 -31.656174c-11.474724 -19.72676 -11.551521 -44.096474 -0.20135498 -63.895477c11.350166 -19.799004 32.395348 -32.006134 55.178825 -32.006134l0 63.779526z" fill-rule="evenodd"/><path stroke="#595959" stroke-width="4.0" stroke-linejoin="round" stroke-linecap="butt" d="m179.30324 151.45596l0 0c56.136444 -0.17515564 108.128494 20.765472 136.34059 54.91336c28.212097 34.14789 28.34494 76.29913 0.34832764 110.53473c-27.996582 34.235565 -79.85614 55.338226 -135.99315 55.338226l0 -110.39371z" fill-rule="evenodd" fill="#ffffff"/><path fill="#000000" d="m179.59703 198.07033l0 0c22.78302 -0.14424133 43.904724 11.929413 55.379456 31.656174c11.474716 19.726746 11.551514 44.096466 0.20135498 63.895477c-11.350174 19.799011 -32.395355 32.006134 -55.178833 32.006134l0 -63.77954z" fill-rule="evenodd"/></g></svg>