<svg xmlns:xlink="http://www.w3.org/1999/xlink" xmlns="http://www.w3.org/2000/svg" version="1.1" viewBox="0.0 0.0 600 200" fill="none" stroke="none" stroke-linecap="square" stroke-miterlimit="10"><g><path stroke="#000000" stroke-width="4.0" stroke-linejoin="round" stroke-linecap="square" d="m90 10v180" fill-rule="evenodd"/><path stroke="#000000" stroke-width="4.0" stroke-linejoin="round" stroke-linecap="butt" d="m10 10h164" fill-rule="evenodd"/><path stroke="#000000" stroke-width="4.0" stroke-linejoin="round" stroke-linecap="square" d="m131 190v-72" fill-rule="evenodd"/><path stroke="#000000" stroke-width="4.0" stroke-linejoin="round" stroke-linecap="square" d="m208 10v180" fill-rule="evenodd"/><path stroke="#000000" stroke-width="4.0" stroke-linejoin="round" stroke-linecap="butt" d="m104 20l27 98l27 -98" fill-rule="evenodd"/><path stroke="#000000" stroke-width="4.0" stroke-linejoin="round" stroke-linecap="butt" d="m272 10l-64 108l80 72" fill-rule="evenodd"/><path stroke="#000000" stroke-width="4.0" stroke-linejoin="round" stroke-linecap="butt" d="m228 118l56 -98v98" fill-rule="evenodd"/><path stroke="#000000" stroke-width="4.0" stroke-linejoin="round" stroke-linecap="butt" d="m229.20473 96.755905l63.87401 0" fill-rule="evenodd"/><path stroke="#000000" stroke-width="4.0" stroke-linejoin="round" stroke-linecap="butt" d="m304 190v-170h48c20 0 36 16 36 30c0 16 -16 30 -36 30h-48" fill-rule="evenodd"/><path stroke="#000000" stroke-width="4.0" stroke-linejoin="round" stroke-linecap="butt" d="m306.23096 82.19423l45.102386 30.519684" fill-rule="evenodd"/><path stroke="#000000" stroke-width="4.0" stroke-linejoin="round" stroke-linecap="butt" d="m390 152h32c-0.11456299 17.021622 -12.870789 31.847412 -31.090668 36.13478c-18.21988 4.287369 -37.351654 -3.0347748 -46.6297 -17.846176c-9.278046 -14.811417 -6.3845215 -33.411865 7.0523987 -45.334732c13.43692 -11.922859 34.060333 -14.189529 50.26532 -5.524521v-21" fill-rule="evenodd"/><path stroke="#000000" stroke-width="4.0" stroke-linejoin="round" stroke-linecap="butt" d="m500 20h-70v170h124" fill-rule="evenodd"/><path stroke="#000000" stroke-width="4.0" stroke-linejoin="round" stroke-linecap="butt" d="m430 130h36" fill-rule="evenodd"/><path stroke="#000000" stroke-width="4.0" stroke-linejoin="round" stroke-linecap="square" d="m556 32h-44c-20 0 -36 12 -36 30c0 16 16 30 36 30h20c20 0 36 12 36 30c0 16 -16 30 -36 30h-56" fill-rule="evenodd"/></g></svg>