<svg xmlns:xlink="http://www.w3.org/1999/xlink" xmlns="http://www.w3.org/2000/svg" version="1.1" viewBox="0.0 0.0 378.7979002624672 407.79002624671915" fill="none" stroke="none" stroke-linecap="square" stroke-miterlimit="10"><clipPath id="p.0"><path d="m0 0l378.7979 0l0 407.79004l-378.7979 0l0 -407.79004z" clip-rule="nonzero"/></clipPath><g clip-path="url(#p.0)"><path fill="#000000" fill-opacity="0.0" d="m0 0l378.7979 0l0 407.79004l-378.7979 0z" fill-rule="evenodd"/><g filter="url(#shadowFilter-p.1)"><use xlink:href="#p.1" transform="matrix(1.0 0.0 0.0 1.0 0.0 2.0)"/></g><defs><filter id="shadowFilter-p.1" filterUnits="userSpaceOnUse"><feGaussianBlur in="SourceAlpha" stdDeviation="2.0" result="blur"/><feComponentTransfer in="blur" color-interpolation-filters="sRGB"><feFuncR type="linear" slope="0" intercept="0.0"/><feFuncG type="linear" slope="0" intercept="0.0"/><feFuncB type="linear" slope="0" intercept="0.0"/><feFuncA type="linear" slope="0.5" intercept="0"/></feComponentTransfer></filter></defs><g id="p.1"><path fill="#000000" fill-opacity="0.0" d="m189.39764 10.901575l0 385.98425" fill-rule="evenodd"/><path stroke="#000000" stroke-width="4.0" stroke-linejoin="round" stroke-linecap="butt" d="m189.39764 10.901575l0 385.98425" fill-rule="evenodd"/></g><path fill="#ffffff" d="m178.59735 250.04747l0 0c-56.136444 0.17515564 -108.128494 -20.765472 -136.34059 -54.91336c-28.212105 -34.14789 -28.344938 -76.29914 -0.34833527 -110.53472c27.996601 -34.23558 79.856155 -55.338234 135.99316 -55.338234l0 110.39371z" fill-rule="evenodd"/><path stroke="#000000" stroke-width="4.0" stroke-linejoin="round" stroke-linecap="butt" d="m178.59735 250.04747l0 0c-56.136444 0.17515564 -108.128494 -20.765472 -136.34059 -54.91336c-28.212105 -34.14789 -28.344938 -76.29914 -0.34833527 -110.53472c27.996601 -34.23558 79.856155 -55.338234 135.99316 -55.338234l0 110.39371z" fill-rule="evenodd"/><path fill="#000000" d="m178.30356 203.4331l0 0c-22.78302 0.14424133 -43.904724 -11.929413 -55.379448 -31.656174c-11.474724 -19.726746 -11.551521 -44.096466 -0.20135498 -63.89547c11.350166 -19.799004 32.395348 -32.006134 55.178825 -32.006134l0 63.779533z" fill-rule="evenodd"/><path stroke="#000000" stroke-width="4.0" stroke-linejoin="round" stroke-linecap="butt" d="m178.30356 203.4331l0 0c-22.78302 0.14424133 -43.904724 -11.929413 -55.379448 -31.656174c-11.474724 -19.726746 -11.551521 -44.096466 -0.20135498 -63.89547c11.350166 -19.799004 32.395348 -32.006134 55.178825 -32.006134l0 63.779533z" fill-rule="evenodd"/><path fill="#ffffff" d="m200.30717 162.35754l0 0c56.13643 -0.1751709 108.128494 20.765472 136.34059 54.91336c28.212097 34.14789 28.34494 76.29913 0.34832764 110.53473c-27.996582 34.235565 -79.85614 55.338226 -135.99315 55.338226l0 -110.39371z" fill-rule="evenodd"/><path stroke="#000000" stroke-width="4.0" stroke-linejoin="round" stroke-linecap="butt" d="m200.30717 162.35754l0 0c56.13643 -0.1751709 108.128494 20.765472 136.34059 54.91336c28.212097 34.14789 28.34494 76.29913 0.34832764 110.53473c-27.996582 34.235565 -79.85614 55.338226 -135.99315 55.338226l0 -110.39371z" fill-rule="evenodd"/><path fill="#000000" d="m200.60097 208.9719l0 0c22.78302 -0.14422607 43.904724 11.929428 55.379456 31.656174c11.474716 19.72676 11.551529 44.09648 0.20133972 63.895493c-11.350159 19.79898 -32.39534 32.006134 -55.178818 32.006134l0 -63.77954z" fill-rule="evenodd"/><path stroke="#000000" stroke-width="4.0" stroke-linejoin="round" stroke-linecap="butt" d="m200.60097 208.9719l0 0c22.78302 -0.14422607 43.904724 11.929428 55.379456 31.656174c11.474716 19.72676 11.551529 44.09648 0.20133972 63.895493c-11.350159 19.79898 -32.39534 32.006134 -55.178818 32.006134l0 -63.77954z" fill-rule="evenodd"/><path fill="#000000" fill-opacity="0.0" d="m12.7681265 12.823614l353.25983 -1.9212599" fill-rule="evenodd"/><path stroke="#000000" stroke-width="4.0" stroke-linejoin="round" stroke-linecap="butt" d="m12.7681265 12.823614l353.25983 -1.9212599" fill-rule="evenodd"/></g></svg>